Coordinates
version=1
nRows=9
nColumns=24
inDegrees=yes

Units are S.I. units (second, meters, Newtons, ...)
Angles are in degrees.

endheader
time	pelvis_tilt	pelvis_list	pelvis_rotation	pelvis_tx	pelvis_ty	pelvis_tz	hip_flexion_r	hip_adduction_r	hip_rotation_r	knee_angle_r	ankle_angle_r	subtalar_angle_r	mtp_angle_r	hip_flexion_l	hip_adduction_l	hip_rotation_l	knee_angle_l	ankle_angle_l	subtalar_angle_l	mtp_angle_l	lumbar_extension	lumbar_bending	lumbar_rotation
      2.66000000	     -4.62972401	      0.62227521	     -1.21539501	      0.06919271	      0.93977210	     -0.01974271	     26.01487265	     -2.16622223	      1.56064074	      0.65615371	      3.95136684	      0.00000000	      0.00000000	     -1.12634368	      3.82530363	      3.48278797	    -16.49092602	     24.62935862	      0.00000000	      0.00000000	     -5.89641060	      1.00209459	      0.54737410
      2.67000000	     -4.69125338	      0.53758937	     -0.67703421	      0.07042704	      0.93836653	     -0.01935533	     26.08333914	     -2.17779896	      1.81372388	      0.00498737	      3.75585439	      0.00000000	      0.00000000	     -1.67226955	      3.64720081	      3.66246147	    -16.46042199	     24.74695453	      0.00000000	      0.00000000	     -5.76106452	      1.23314283	      0.34515375
      2.68000000	     -4.69043010	      0.35218912	     -0.21555538	      0.07197720	      0.93710148	     -0.01898573	     26.18847133	     -2.03478460	      1.81843801	     -1.01121823	      3.53720291	      0.00000000	      0.00000000	     -2.36612267	      3.36973792	      3.96915188	    -16.33576135	     24.94825238	      0.00000000	      0.00000000	     -5.64743323	      1.60796495	      0.20478601
      2.69000000	     -4.75197390	      0.20666094	      0.32993866	      0.07362257	      0.93585398	     -0.01814410	     26.23194037	     -1.92368225	      2.11122308	     -1.87964813	      3.18082388	      0.00000000	      0.00000000	     -2.95788839	      3.05390849	      4.09521189	    -16.24543360	     25.02796478	      0.00000000	      0.00000000	     -5.44083121	      1.86295204	     -0.09721523
      2.70000000	     -4.78378808	     -0.05019454	      0.76526515	      0.07543527	      0.93474498	     -0.01732245	     26.39732338	     -1.64420794	      2.30644556	     -3.10982886	      2.66298374	      0.00000000	      0.00000000	     -3.66301847	      2.63876135	      4.37124178	    -16.02131021	     25.09489779	      0.00000000	      0.00000000	     -5.24725869	      2.27950977	     -0.28569696
      2.71000000	     -4.81036294	     -0.38919534	      1.04037121	      0.07742848	      0.93374748	     -0.01627695	     26.70492173	     -1.17890503	      2.16196913	     -4.64091230	      2.24673851	      0.00000000	      0.00000000	     -4.43205628	      2.12283768	      4.41813441	    -15.68429088	     25.11379790	      0.00000000	      0.00000000	     -5.04923784	      2.78536251	     -0.25768484
      2.72000000	     -4.87968494	     -0.62852467	      1.45702864	      0.07942699	      0.93287031	     -0.01516541	     26.85726768	     -0.89004572	      2.62991377	     -5.81889800	      1.73411030	      0.00000000	      0.00000000	     -5.05430162	      1.68433647	      4.61073013	    -15.51974597	     25.02154735	      0.00000000	      0.00000000	     -4.77592463	      3.15870084	     -0.53322602
      2.73000000	     -4.96923567	     -0.95500004	      1.59822032	      0.08163678	      0.93213258	     -0.01372492	     27.29245147	     -0.36223473	      2.84650899	     -7.50630451	      1.30089656	      0.00000000	      0.00000000	     -5.73400386	      1.16285661	      4.55256195	    -15.20551335	     24.76416342	      0.00000000	      0.00000000	     -4.46016546	      3.62570884	     -0.50931641
      2.74000000	     -5.03964117	     -1.20979014	      1.91761256	      0.08376652	      0.93166505	     -0.01234445	     27.47965082	      0.00896440	      3.38991860	     -8.77118016	      0.89382184	      0.00000000	      0.00000000	     -6.29866101	      0.69046485	      4.69552258	    -15.10744607	     24.50330326	      0.00000000	      0.00000000	     -4.16830781	      3.99827652	     -0.76459481
